#!OML:ASF E:\emotionWalksFemale\Project 1\Capture day 1\Session 1\Female1.ASF
:FULLY-SPECIFIED
:DEGREES
94
root 8.87757 15.5671 21.7053 -169.142 -0.857637 -179.085
lowerback 18.3635 0.522399 2.0718
upperback 2.03715 0.804705 0.594825
thorax -8.07036 0.18038 -0.716505
lowerneck -7.31621 -2.94733 -7.9142
upperneck -7.10015 -3.705 8.59569
head -0.669827 -1.96443 4.18013
rclavicle 1.19271e-015 2.38542e-015
rhumerus -57.4909 35.8359 -23.5571
rradius 32.7041
rwrist 27.1927
rhand 8.66379 -58.5723
rfingers 7.12502
rthumb 33.8579 -85.3875
lclavicle 1.19271e-015 2.38542e-015
lhumerus -48.7711 -14.2234 -1.3888
lradius 35.6139
lwrist -5.30586
lhand 11.4895 -29.0541
lfingers 7.12502
lthumb 36.5377 -2.87155
rfemur -16.3018 12.9208 24.0956
rtibia 19.8988
rfoot -15.8609 -26.3321
rtoes 0.368632
lfemur -25.5894 -9.81028 -17.9524
ltibia 32.1691
lfoot -22.0888 7.89184
ltoes -26.4502
95
root 8.88241 15.5495 21.7283 -168.686 -1.18283 -178.751
lowerback 18.4832 0.478391 2.49819
upperback 2.33572 0.79979 0.743669
thorax -7.80578 0.154201 -0.795412
lowerneck -7.41643 -3.06547 -7.99326
upperneck -7.39453 -3.86782 8.59005
head -0.73349 -2.05567 4.19179
rclavicle -4.96962e-015 -1.25234e-014
rhumerus -58.2049 35.4754 -22.7474
rradius 32.5255
rwrist 27.3506
rhand 8.9797 -59.0981
rfingers 7.12502
rthumb 34.158 -85.8466
lclavicle -4.96962e-015 -1.25234e-014
lhumerus -49.7951 -13.8775 -2.47335
lradius 35.9322
lwrist -5.47678
lhand 11.6481 -28.4656
lfingers 7.12502
lthumb 36.6878 -2.32109
rfemur -17.3996 12.5007 24.4363
rtibia 20.7847
rfoot -16.2156 -26.2005
rtoes 0.204881
lfemur -26.876 -9.31226 -17.5542
ltibia 33.1643
lfoot -22.1495 7.52937
ltoes -27.1816
96
root 8.88432 15.5299 21.7474 -168.246 -1.38128 -178.599
lowerback 18.9203 0.506464 2.89625
upperback 2.38179 0.918132 0.815266
thorax -7.98371 0.189504 -0.976364
lowerneck -7.2065 -3.33381 -8.42153
upperneck -7.40668 -4.19104 8.79438
head -0.730728 -2.20584 4.34414
rclavicle 9.14409e-015 7.15625e-015
rhumerus -59.301 35.1636 -22.0142
rradius 32.1662
rwrist 27.7837
rhand 8.98149 -59.5407
rfingers 7.12502
rthumb 34.1597 -86.2889
lclavicle 9.14409e-015 7.15625e-015
lhumerus -50.3411 -13.8377 -3.44902
lradius 35.9648
lwrist -5.79334
lhand 11.9014 -28.0731
lfingers 7.12502
lthumb 36.9275 -1.98989
rfemur -18.506 12.0385 24.5754
rtibia 21.7786
rfoot -16.6726 -25.9879
rtoes -0.556845
lfemur -28.1096 -8.82315 -17.419
ltibia 34.2056
lfoot -22.3247 7.30295
ltoes -27.2768
97
root 8.88352 15.5116 21.7654 -167.829 -1.43847 -178.634
lowerback 19.201 0.308997 2.67156
upperback 2.58401 0.579883 0.742005
thorax -7.93 0.0224463 -0.842116
lowerneck -7.54184 -3.11365 -7.63672
upperneck -7.2251 -3.94991 8.5265
head -0.656573 -2.10031 4.09019
rclavicle -5.46658e-015 -8.74653e-015
rhumerus -59.3087 35.0069 -21.596
rradius 31.7714
rwrist 28.4594
rhand 8.9786 -60.1792
rfingers 7.12502
rthumb 34.1569 -86.928
lclavicle -5.46658e-015 -8.74653e-015
lhumerus -51.7649 -13.707 -4.86311
lradius 35.9903
lwrist -5.9118
lhand 12.3583 -27.3958
lfingers 7.12502
lthumb 37.3595 -1.42512
rfemur -19.63 11.3771 24.5332
rtibia 22.8569
rfoot -17.0616 -25.5954
rtoes -1.26833
lfemur -29.2353 -8.36414 -17.5381
ltibia 35.2031
lfoot -22.727 7.22764
ltoes -27.4349
98
root 8.88193 15.4903 21.7853 -167.405 -1.47321 -178.606
lowerback 19.533 0.488801 2.95613
upperback 2.80782 0.847612 0.809807
thorax -7.85184 0.129542 -0.999113
lowerneck -7.82383 -3.43525 -8.09958
upperneck -7.16801 -4.33098 8.59882
head -0.543143 -2.27589 4.18793
rclavicle 8.15017e-015 1.68967e-014
rhumerus -60.5705 34.5309 -21.0615
rradius 31.4668
rwrist 29.208
rhand 8.98535 -60.8872
rfingers 7.12502
rthumb 34.1634 -87.6346
lclavicle 8.15017e-015 1.68967e-014
lhumerus -52.1859 -13.1685 -5.64593
lradius 35.9376
lwrist -6.33444
lhand 12.6446 -26.9077
lfingers 7.12502
lthumb 37.6301 -1.00877
rfemur -20.8178 10.6653 24.5733
rtibia 23.9934
rfoot -17.3783 -25.1131
rtoes -1.57283
lfemur -30.3286 -7.896 -17.595
ltibia 36.0831
lfoot -23.0232 7.04554
ltoes -27.3919
99
root 8.88331 15.4686 21.8036 -167.06 -1.51914 -178.562
lowerback 20.0422 0.446368 2.98957
upperback 3.02427 0.766124 0.779422
thorax -7.89163 0.0720196 -1.03109
lowerneck -8.20562 -3.40882 -7.76051
upperneck -7.04043 -4.31472 8.44167
head -0.448122 -2.27251 4.05571
rclavicle -6.55989e-015 -1.61016e-014
rhumerus -61.2502 34.1329 -20.8485
rradius 31.143
rwrist 29.8952
rhand 9.36787 -61.8786
rfingers 7.12502
rthumb 34.5265 -88.544
lclavicle -6.55989e-015 -1.61016e-014
lhumerus -52.8809 -13.4206 -6.4959
lradius 35.6722
lwrist -5.79883
lhand 13.1887 -26.3046
lfingers 7.12502
lthumb 38.1441 -0.544694
rfemur -21.9147 10.1116 24.6479
rtibia 25.1472
rfoot -17.692 -24.7682
rtoes -2.13477
lfemur -31.2655 -7.47304 -17.6353
ltibia 36.8597
lfoot -23.3141 6.61071
ltoes -26.7648
100
root 8.88784 15.4536 21.8149 -166.783 -1.52577 -178.699
lowerback 20.549 0.511233 2.94214
upperback 3.24338 0.803957 0.703969
thorax -7.92175 0.0736443 -1.097
lowerneck -8.30426 -3.49181 -7.84721
upperneck -6.99148 -4.4107 8.5626
head -0.400944 -2.31707 4.10964
rclavicle 1.09332e-014 1.39149e-015
rhumerus -62.395 33.6554 -20.8471
rradius 30.8221
rwrist 30.6377
rhand 10.1228 -62.9064
rfingers 7.12502
rthumb 35.2428 -89.4054
lclavicle 1.09332e-014 1.39149e-015
lhumerus -53.5963 -14.3565 -6.71101
lradius 35.7129
lwrist -4.3316
lhand 13.4788 -25.1156
lfingers 7.12502
lthumb 38.4179 0.568737
rfemur -22.8881 9.59485 24.5506
rtibia 26.293
rfoot -18.1048 -24.5144
rtoes -2.93714
lfemur -32.0503 -7.13004 -17.8906
ltibia 37.5548
lfoot -23.6177 6.15653
ltoes -28.0283
101
root 8.89228 15.4393 21.822 -166.473 -1.49691 -178.963
lowerback 21.3076 0.584128 2.63662
upperback 3.28912 0.824551 0.643858
thorax -8.28152 0.0750829 -0.997828
lowerneck -8.6111 -3.56215 -7.91071
upperneck -6.66586 -4.47804 8.57093
head -0.232612 -2.33638 4.11172
rclavicle 8.34896e-015 -5.36719e-015
rhumerus -63.6655 33.5376 -21.1071
rradius 30.5079
rwrist 31.3993
rhand 10.741 -63.4467
rfingers 7.12502
rthumb 35.8288 -89.8051
lclavicle 8.34896e-015 -5.36719e-015
lhumerus -54.5992 -14.9102 -6.98571
lradius 35.8195
lwrist -3.52642
lhand 13.1177 -23.9303
lfingers 7.12502
lthumb 38.077 1.84797
rfemur -23.8888 9.0732 24.3121
rtibia 27.4793
rfoot -18.6418 -24.2389
rtoes -3.50904
lfemur -32.824 -6.78559 -18.3117
ltibia 38.1369
lfoot -23.8068 5.7768
ltoes -30.7605
102
root 8.89321 15.4205 21.8323 -166.043 -1.3968 -179.187
lowerback 21.1114 0.692693 2.49416
upperback 3.82915 0.831452 0.503819
thorax -7.58371 0.064368 -1.06481
lowerneck -8.63851 -3.65884 -7.86789
upperneck -6.99674 -4.62348 8.63202
head -0.323202 -2.42468 4.12356
rclavicle 1.21259e-014 2.38542e-015
rhumerus -64.6856 32.7833 -21.6238
rradius 30.0202
rwrist 32.0322
rhand 10.9481 -63.6875
rfingers 7.12502
rthumb 36.025 -89.9979
lclavicle 1.21259e-014 2.38542e-015
lhumerus -55.6636 -13.2876 -8.01756
lradius 35.809
lwrist -4.43332
lhand 12.8977 -23.1672
lfingers 7.12502
lthumb 37.8693 2.6675
rfemur -25.0915 8.67951 24.0622
rtibia 28.7618
rfoot -19.3227 -23.9355
rtoes -3.67995
lfemur -33.7007 -6.38218 -18.6959
ltibia 38.6414
lfoot -24.028 5.16513
ltoes -30.9998
103
root 8.88814 15.3988 21.8448 -165.47 -1.21884 -179.475
lowerback 21.8117 0.727275 2.22755
upperback 3.64516 0.834714 0.336625
thorax -8.16017 0.0656869 -1.10213
lowerneck -8.53231 -3.78606 -7.67207
upperneck -6.50567 -4.7867 8.51454
head -0.173809 -2.48827 4.03044
rclavicle -6.16232e-015 -2.38542e-015
rhumerus -66.1465 32.789 -22.5184
rradius 29.5137
rwrist 32.586
rhand 10.5796 -64.5097
rfingers 7.12502
rthumb 35.6759 -269.095
lclavicle -6.16232e-015 -2.38542e-015
lhumerus -56.1533 -14.1743 -8.51802
lradius 35.3131
lwrist -3.74164
lhand 12.8099 -22.2481
lfingers 7.12502
lthumb 37.7863 3.60896
rfemur -26.4821 8.30099 23.6978
rtibia 30.0745
rfoot -19.9591 -23.6359
rtoes -3.85072
lfemur -34.7356 -6.01212 -19.1628
ltibia 39.1422
lfoot -24.111 4.48417
ltoes -29.5647
